<svg class="icon" style="width: 1em;height: 1em;vertical-align: middle;fill: currentColor;overflow: hidden;" viewBox="0 0 1024 1024" version="1.1" xmlns="http://www.w3.org/2000/svg"><path d="M466.944 794.112c-173.056 0-314.368-140.8-314.368-314.368s140.8-314.368 314.368-314.368 314.368 140.8 314.368 314.368-141.312 314.368-314.368 314.368z m0-589.312c-151.552 0-274.944 123.392-274.944 274.944s123.392 274.944 274.944 274.944 274.944-123.392 274.944-274.944S618.496 204.8 466.944 204.8z" fill="#333333" /><path d="M686.592 426.496c-4.608 0-9.216-1.024-13.824-2.56-4.608-1.536-9.216-3.584-12.8-5.632-2.048-1.024-3.584-2.048-5.632-2.56l-1.536-0.512c-9.728-4.096-12.8-5.632-19.456-3.584-28.16 9.216-58.368 1.024-82.944-22.528-18.432-17.92-22.528-47.616-10.24-72.704 3.072-5.632 6.144-10.752 9.728-15.872-23.04-29.696-4.608-58.368 7.68-77.312l5.632-8.704c5.632-9.216 17.92-12.288 27.136-6.656 9.216 5.632 12.288 17.92 6.656 27.136l-6.144 9.728c-13.824 21.504-14.336 26.112-9.216 32.256 10.24 12.288 11.776 30.208 2.56 43.008-3.584 5.12-6.656 9.728-8.704 14.336-4.608 9.728-4.096 20.48 2.048 26.624 8.192 7.68 24.576 19.968 43.52 13.824 20.992-7.168 35.84-0.512 47.616 4.608l1.536 0.512c2.56 1.024 5.12 2.56 7.68 3.584l6.144 3.072c5.12-7.168 15.36-10.24 24.064-6.656 9.728 4.608 14.336 15.872 10.24 26.112-6.656 12.8-18.432 20.48-31.744 20.48zM589.312 698.368c-3.584 0-6.656-1.024-10.24-3.072-15.872-9.728-22.016-27.136-15.36-45.056 3.584-10.24 9.216-18.944 17.408-25.6-10.752-22.528-22.528-47.616-10.24-81.408 11.264-30.72 37.888-53.76 71.68-60.928 15.36-3.072 30.208-4.608 41.984-5.632 23.04-2.048 44.032 6.656 60.416 24.064 4.096 4.608 8.192 8.704 12.8 12.8l6.656 6.656c7.68 7.68 7.68 19.968 0.512 27.648-7.68 7.68-19.968 7.68-27.648 0.512l-6.656-6.144c-5.12-5.12-10.24-9.728-14.848-14.848-7.68-8.704-16.896-12.288-27.648-11.264-10.24 1.024-24.064 2.048-36.864 5.12-19.968 4.096-36.352 17.92-43.008 35.84-6.656 18.432-1.536 30.72 9.216 52.736 2.048 4.096 4.096 8.704 6.144 13.312 2.56 5.12 2.56 11.264 0.512 16.896-2.048 5.12-6.144 9.728-11.776 11.776-5.632 2.56-9.216 6.144-11.264 11.776 7.68 6.144 10.24 17.408 5.12 26.112-4.096 5.12-10.24 8.704-16.896 8.704z" fill="#333333" /><path d="M447.488 616.448c-3.584-2.56-7.168-4.608-10.752-7.168-8.704-5.632-17.92-11.776-26.624-19.456-10.752-9.728-23.552-11.264-40.448-13.312l-5.632-0.512c-6.656-1.024-13.312-1.536-20.48-2.56l-36.352-4.608 11.776-24.576c8.192-17.408 6.656-34.304 1.536-57.856-2.56-11.264 3.072-24.064 9.728-30.72 8.192-8.192 16.896-15.872 25.088-23.552 3.584-3.584 7.68-6.656 11.264-10.24l1.536-1.536c0-0.512-0.512-1.536-1.024-2.56-1.536-3.072-2.56-6.144-4.096-9.728-3.072-6.656-5.632-13.312-8.192-19.968-1.024-3.072-2.048-4.608-6.656-5.632l-5.12-1.024c-15.872-3.584-32.768-7.168-49.152-16.384-26.112-14.848-32.768-40.96-36.352-56.32-3.072-11.776 4.608-22.016 8.192-26.112C302.08 240.64 349.184 213.504 404.48 201.728c2.048-0.512 4.096-0.512 6.144-0.512 8.192 0 15.872 3.072 20.48 8.192 22.528 24.576 30.208 54.272 22.016 86.016-3.072 11.264-12.8 17.92-17.408 19.968-5.632 3.072-8.704 7.168-10.752 14.336-5.12 16.384-10.752 32.256-17.408 49.152-1.024 2.048-1.024 3.072-1.024 3.072s0 0.512 1.024 1.024c5.632 6.656 11.776 13.312 17.408 19.456 6.656 7.68 13.312 15.36 19.968 22.528 25.088 27.648 31.744 64.512 16.384 96.768-3.072 6.144-3.072 9.728 1.536 18.944 5.632 11.776 9.728 23.552 13.312 35.328l4.608 13.824 5.12 14.848-28.16 17.92-10.24-6.144z" fill="#6462F3" /><path d="M410.112 221.184c2.56 0 5.12 0.512 6.144 2.048 17.92 18.944 24.064 41.984 17.408 68.096-1.024 3.072-4.608 6.144-7.68 7.68-10.24 5.632-16.384 13.824-19.968 25.6-5.12 16.384-11.264 32.256-16.896 48.128-3.584 9.216-2.56 16.896 4.096 24.576 12.8 13.824 24.576 28.672 37.376 42.496 18.944 20.992 25.088 49.152 12.8 75.264-6.144 13.312-4.608 23.552 1.536 35.84 7.168 14.848 11.776 31.232 17.408 47.104-1.024 1.024-2.56 1.536-3.584 2.56-11.776-8.192-24.576-15.36-35.328-25.088-16.896-15.36-36.864-16.384-57.344-18.944-9.216-1.024-18.432-2.56-29.696-4.096 11.264-24.064 8.192-47.104 3.072-70.144-1.024-3.584 1.536-9.728 4.096-12.8 11.776-11.776 24.064-22.016 36.352-33.28 9.728-8.704 10.752-13.824 5.632-26.624-4.096-9.728-8.704-18.944-12.288-28.672-3.584-10.24-10.752-15.872-20.992-17.92-16.896-3.584-33.792-6.656-49.664-15.872-17.408-10.24-23.04-26.624-27.136-44.032-0.512-2.048 1.536-6.144 3.584-8.192 34.816-39.936 77.824-64 128.512-74.24 1.536 0.512 2.048 0.512 2.56 0.512m0-39.424c-3.584 0-6.656 0.512-9.728 1.024-59.392 12.288-110.08 41.472-150.016 87.04-11.776 13.312-15.872 29.184-12.288 44.032 4.608 17.408 12.8 49.152 45.568 68.608 19.456 11.264 38.4 15.36 55.296 18.944 2.048 5.12 4.096 9.728 6.144 14.336l-2.56 2.56c-8.704 7.68-17.408 15.36-26.112 24.064-10.752 10.24-19.456 29.696-14.848 49.152 4.096 19.968 5.632 32.768 0 45.056l-23.04 48.64 53.76 7.168 10.24 1.536c7.168 1.024 13.312 2.048 19.968 2.56l6.144 0.512c15.36 2.048 24.064 3.072 29.696 8.192 9.728 8.704 19.968 15.36 28.672 21.504 3.584 2.048 6.656 4.608 10.24 6.656l21.504 15.36 22.016-14.336 3.584-2.56 26.624-16.896-10.752-29.696c-1.536-4.608-3.072-9.216-4.608-13.312-4.096-12.288-8.192-25.088-14.336-37.888-0.512-1.024-1.024-2.048-1.024-2.56 18.432-39.424 10.752-84.48-19.968-117.76-6.656-7.168-12.8-14.336-19.968-22.528L429.568 378.88c5.12-14.336 10.24-28.16 14.848-42.496 0.512-2.048 1.024-2.56 1.024-2.56 6.656-3.584 22.016-13.824 27.136-32.768 10.24-38.4 1.024-74.752-26.624-104.448-9.216-9.728-22.016-14.848-35.84-14.848z" fill="#333333" /><path d="M299.52 345.6L136.704 199.168" fill="#EFEFFD" /><path d="M299.52 365.568c-4.608 0-9.216-1.536-13.312-5.12L123.392 213.504c-8.192-7.168-8.704-19.968-1.536-27.648 7.168-8.192 19.968-8.704 27.648-1.536L312.32 330.752c8.192 7.168 8.704 19.968 1.536 27.648-3.584 4.608-9.216 7.168-14.336 7.168z" fill="#333333" /><path d="M30.208 164.864a66.56 62.976 90 1 0 125.952 0 66.56 62.976 90 1 0-125.952 0Z" fill="#EFEFFD" /><path d="M93.184 250.88c-12.8 0-25.088-3.072-36.864-9.216-20.48-10.752-35.328-28.672-41.984-51.2-13.824-45.056 10.24-93.184 53.76-108.032 20.48-7.168 43.008-5.12 62.464 4.608 20.48 10.752 35.328 28.672 41.984 51.2 13.824 45.056-10.24 93.184-53.76 108.032-8.704 3.072-17.408 4.608-25.6 4.608z m0-132.608c-4.608 0-8.704 0.512-12.8 2.048-23.04 7.68-35.84 34.304-28.16 58.88 3.584 12.288 11.776 22.016 22.528 27.648 9.728 5.12 20.992 6.144 31.744 2.56 23.04-7.68 35.84-34.304 28.16-58.88-4.096-12.288-11.776-22.016-22.528-27.648-6.144-3.072-12.8-4.608-18.944-4.608z" fill="#333333" /><path d="M692.224 501.248l188.928 105.472" fill="#EFEFFD" /><path d="M881.152 626.688c-3.072 0-6.656-1.024-9.728-2.56l-188.928-105.984c-9.728-5.12-12.8-17.408-7.68-26.624 5.12-9.728 17.408-12.8 26.624-7.68l188.928 105.984c9.728 5.12 12.8 17.408 7.68 26.624-3.072 6.656-9.728 10.24-16.896 10.24z" fill="#333333" /><path d="M867.84 630.272a66.56 62.976 90 1 0 125.952 0 66.56 62.976 90 1 0-125.952 0Z" fill="#EFEFFD" /><path d="M931.328 716.288c-6.656 0-13.824-1.024-20.48-2.56-22.016-5.632-40.448-19.968-51.712-40.448-22.528-40.96-9.216-93.184 29.696-117.248 18.944-11.776 40.96-14.848 62.464-9.216 22.016 5.632 40.448 19.968 51.712 40.448 22.528 40.96 9.216 93.184-29.696 117.248-13.312 7.68-27.648 11.776-41.984 11.776z m-0.512-132.608c-7.68 0-14.848 2.048-21.504 6.144-20.992 12.8-28.16 41.984-15.872 64.512 6.144 10.752 15.872 18.432 27.136 21.504 10.752 3.072 22.016 1.024 31.744-4.608 20.992-12.8 28.16-41.984 15.872-64.512-6.144-10.752-15.872-18.432-27.136-21.504-3.072-1.024-6.656-1.536-10.24-1.536z" fill="#333333" /><path d="M685.568 282.112l92.16-55.808" fill="#EFEFFD" /><path d="M685.568 302.08c-6.656 0-13.312-3.584-16.896-9.728-5.632-9.216-2.56-21.504 6.656-27.136l92.16-55.808c9.216-5.632 21.504-2.56 27.136 6.656 5.632 9.216 2.56 21.504-6.656 27.136l-92.16 55.808c-3.072 2.048-6.656 3.072-10.24 3.072z" fill="#333333" /><path d="M766.464 206.848a41.472 39.424 90 1 0 78.848 0 41.472 39.424 90 1 0-78.848 0Z" fill="#EFEFFD" /><path d="M805.888 267.776h-2.048c-32.768-1.024-58.368-29.184-57.344-62.976 0.512-16.896 7.168-32.256 19.456-43.52 11.264-10.752 26.112-16.384 41.472-15.872 32.768 1.024 58.368 29.184 57.344 62.976-0.512 16.896-7.168 32.256-19.456 43.52-10.752 10.24-24.576 15.872-39.424 15.872z m0-82.944c-4.608 0-9.216 2.048-12.8 5.12-4.096 4.096-6.656 9.728-6.656 15.872-0.512 11.776 8.192 22.016 18.944 22.528 4.608 0 9.728-1.536 13.312-5.12 4.096-4.096 6.656-9.728 6.656-15.872 0.512-11.776-8.192-22.016-18.944-22.528h-0.512z m39.424 23.04z" fill="#333333" /><path d="M312.32 730.624l-53.248 120.32" fill="#EFEFFD" /><path d="M259.072 870.912c-2.56 0-5.632-0.512-8.192-1.536-9.728-4.608-14.336-15.872-10.24-26.112l53.76-120.32c4.608-9.728 15.872-14.336 26.112-9.728 9.728 4.608 14.336 15.872 10.24 26.112l-53.76 120.32c-3.584 6.656-10.752 11.264-17.92 11.264z" fill="#333333" /><path d="M207.36 884.224a41.472 39.424 90 1 0 78.848 0 41.472 39.424 90 1 0-78.848 0Z" fill="#EFEFFD" /><path d="M246.784 945.152c-4.096 0-7.68-0.512-11.776-1.024-15.872-3.072-29.184-12.8-37.888-26.624-17.408-27.648-9.728-65.536 16.896-83.968 13.312-9.216 28.672-12.288 44.544-9.216 15.872 3.072 29.184 12.8 37.888 26.624 17.408 27.648 9.728 65.536-16.896 83.968-9.728 6.656-20.992 10.24-32.768 10.24z m0-82.432c-3.584 0-7.168 1.024-10.24 3.072-9.216 6.656-12.288 20.48-5.632 30.72 3.072 4.608 7.68 8.192 12.8 9.216 5.12 1.024 9.728 0 13.824-3.072 9.216-6.656 12.288-20.48 5.632-30.72-3.072-4.608-7.68-8.192-12.8-9.216h-3.584z" fill="#333333" /></svg>